<svg xmlns="http://www.w3.org/2000/svg" version="1.1" xmlns:xlink="http://www.w3.org/1999/xlink" xmlns:svgjs="http://svgjs.dev/svgjs" width="1500" height="613" viewBox="0 0 1500 613"><g transform="matrix(1,0,0,1,-0.9090909063060053,-1.2583697473055508)"><svg viewBox="0 0 396 162" data-background-color="#ffffff" preserveAspectRatio="xMidYMid meet" height="613" width="1500" xmlns="http://www.w3.org/2000/svg" xmlns:xlink="http://www.w3.org/1999/xlink"><g id="tight-bounds" transform="matrix(1,0,0,1,0.23999999926479632,0.3325544846060353)"><svg viewBox="0 0 395.52 161.33489103078793" height="161.33489103078793" width="395.52"><g><svg viewBox="0 0 730.9017446580513 298.13904057599996" height="161.33489103078793" width="395.52"><g transform="matrix(1,0,0,1,335.3817446580512,35.78843664663546)"><svg viewBox="0 0 395.52000000000004 226.56216728272904" height="226.56216728272904" width="395.52000000000004"><g id="textblocktransform"><svg viewBox="0 0 395.52000000000004 226.56216728272904" height="226.56216728272904" width="395.52000000000004" id="textblock"><g><svg viewBox="0 0 395.52000000000004 157.75726495726497" height="157.75726495726497" width="395.52000000000004"><g transform="matrix(1,0,0,1,0,0)"><svg width="395.52000000000004" viewBox="3.91 -35.62 90.82571428507302 36.23" height="157.75726495726497" data-palette-color="#2295e8"><path d="M17.36 0L9.94 0Q7.42 0 6.12-0.63 4.81-1.27 4.36-2.71 3.91-4.15 3.91-6.54L3.91-6.54 3.91-28.47Q3.91-30.91 4.36-32.34 4.81-33.76 6.12-34.39 7.42-35.01 9.94-35.01L9.94-35.01 16.65-35.01Q22.51-35.01 25.66-32.86 28.81-30.71 28.81-26.81L28.81-26.81Q28.81-24.88 27.93-23.29 27.05-21.7 25.62-20.58 24.19-19.46 22.51-18.9L22.51-18.9 22.51-18.8Q24.66-18.51 26.39-17.4 28.13-16.28 29.16-14.51 30.2-12.74 30.2-10.45L30.2-10.45Q30.2-7.03 28.55-4.7 26.9-2.37 24.01-1.18 21.12 0 17.36 0L17.36 0ZM11.79-26.17L11.79-8.86Q11.79-7.23 12.38-6.52 12.96-5.81 14.58-5.81L14.58-5.81 16.43-5.81Q18.9-5.81 20.4-7.08 21.9-8.35 21.9-10.55L21.9-10.55Q21.9-12.65 20.43-13.84 18.97-15.04 16.65-15.04L16.65-15.04 16.67-15.04Q16.09-15.04 15.8-15.21L15.8-15.21Q15.16-15.63 14.49-16.17 13.82-16.72 13.04-17.5L13.04-17.5Q12.79-17.82 12.79-17.97L12.79-17.97Q12.79-18.16 13.04-18.43L13.04-18.43Q13.82-19.21 14.49-19.78 15.16-20.34 15.8-20.73L15.8-20.73Q16.14-20.9 16.67-20.9L16.67-20.9 16.65-20.9Q18.09-20.9 19.3-21.97 20.51-23.05 20.51-25.34L20.51-25.34Q20.51-27.66 19.21-28.43 17.92-29.2 15.89-29.2L15.89-29.2 14.58-29.2Q12.96-29.2 12.38-28.52 11.79-27.83 11.79-26.17L11.79-26.17ZM50.75-5.98L50.75-5.98Q52.54-5.98 53.55-6.35 54.56-6.71 55.12-7.25 55.69-7.79 56.1-8.33L56.1-8.33Q56.49-8.81 56.75-9.06 57-9.3 57.47-9.4L57.47-9.4Q57.86-9.52 58.73-9.56 59.59-9.59 60.46-9.59 61.33-9.59 61.67-9.55L61.67-9.55Q62.18-9.52 62.38-9.35L62.38-9.35Q62.57-9.18 62.62-8.62L62.62-8.62Q62.69-7.84 62.71-6.76 62.72-5.69 62.67-4.91L62.67-4.91Q62.64-4.66 62.58-4.49 62.52-4.32 62.33-3.98L62.33-3.98Q62.08-3.59 61.37-2.84 60.67-2.1 59.3-1.31 57.93-0.51 55.77 0.05 53.61 0.61 50.46 0.61L50.46 0.61Q47.09 0.61 44.16-0.26 41.23-1.12 39.02-3.17 36.81-5.22 35.58-8.72 34.35-12.21 34.35-17.43L34.35-17.43Q34.35-23.24 36.36-27.31 38.38-31.37 42.09-33.5 45.8-35.62 50.88-35.62L50.88-35.62Q54.44-35.62 56.6-34.89 58.76-34.16 59.89-33.17 61.01-32.18 61.47-31.45L61.47-31.45Q61.64-31.18 61.72-30.97 61.79-30.76 61.81-30.32L61.81-30.32Q61.89-29.74 61.85-28.61 61.81-27.49 61.67-26.64L61.67-26.64Q61.57-26.1 61.35-25.93L61.35-25.93Q61.25-25.83 61.01-25.76 60.76-25.68 60.28-25.68L60.28-25.68Q59.49-25.68 58.52-25.74 57.54-25.81 57.05-25.88L57.05-25.88Q56.47-25.98 56.2-26.16 55.93-26.34 55.66-26.73L55.66-26.73Q55.22-27.37 54.15-28.2 53.07-29.03 50.61-29.03L50.61-29.03Q47.14-29.03 44.89-26.35 42.65-23.68 42.65-17.7L42.65-17.7Q42.65-11.74 45-8.86 47.36-5.98 50.75-5.98ZM82.78-5.98L82.78-5.98Q84.57-5.98 85.58-6.35 86.59-6.71 87.15-7.25 87.71-7.79 88.13-8.33L88.13-8.33Q88.52-8.81 88.78-9.06 89.03-9.3 89.5-9.4L89.5-9.4Q89.89-9.52 90.75-9.56 91.62-9.59 92.49-9.59 93.35-9.59 93.7-9.55L93.7-9.55Q94.21-9.52 94.4-9.35L94.4-9.35Q94.6-9.18 94.65-8.62L94.65-8.62Q94.72-7.84 94.73-6.76 94.75-5.69 94.7-4.91L94.7-4.91Q94.67-4.66 94.61-4.49 94.55-4.32 94.36-3.98L94.36-3.98Q94.11-3.59 93.4-2.84 92.7-2.1 91.33-1.31 89.96-0.51 87.8 0.05 85.64 0.61 82.49 0.61L82.49 0.61Q79.12 0.61 76.19-0.26 73.26-1.12 71.05-3.17 68.84-5.22 67.61-8.72 66.38-12.21 66.38-17.43L66.38-17.43Q66.38-23.24 68.39-27.31 70.41-31.37 74.12-33.5 77.83-35.62 82.91-35.62L82.91-35.62Q86.47-35.62 88.63-34.89 90.79-34.16 91.91-33.17 93.04-32.18 93.5-31.45L93.5-31.45Q93.67-31.18 93.75-30.97 93.82-30.76 93.84-30.32L93.84-30.32Q93.92-29.74 93.88-28.61 93.84-27.49 93.7-26.64L93.7-26.64Q93.6-26.1 93.38-25.93L93.38-25.93Q93.28-25.83 93.04-25.76 92.79-25.68 92.3-25.68L92.3-25.68Q91.52-25.68 90.55-25.74 89.57-25.81 89.08-25.88L89.08-25.88Q88.5-25.98 88.23-26.16 87.96-26.34 87.69-26.73L87.69-26.73Q87.25-27.37 86.18-28.2 85.1-29.03 82.64-29.03L82.64-29.03Q79.17-29.03 76.92-26.35 74.68-23.68 74.68-17.7L74.68-17.7Q74.68-11.74 77.03-8.86 79.39-5.98 82.78-5.98Z" opacity="1" transform="matrix(1,0,0,1,0,0)" fill="#2295e8" class="wordmark-text-0" data-fill-palette-color="primary" id="text-0"></path></svg></g></svg></g><g transform="matrix(1,0,0,1,0,194.99996903931626)"><svg viewBox="0 0 395.52000000000004 31.5621982434128" height="31.5621982434128" width="395.52000000000004"><g transform="matrix(1,0,0,1,0,0)"><svg width="395.52000000000004" viewBox="3.33 -33.33 553.42 44.16" height="31.5621982434128" data-palette-color="#1979cd"><path d="M14.13 0.28L14.13 0.28Q11.98 0.28 10.1-0.54 8.23-1.35 6.81-2.74L6.81-2.74 6.81 0 3.33 0 3.33-33.33 7.08-33.33 7.08-18.37Q8.47-19.65 10.28-20.38 12.08-21.11 14.13-21.11L14.13-21.11Q17.01-21.11 19.36-19.67 21.7-18.23 23.11-15.8 24.51-13.37 24.51-10.42L24.51-10.42Q24.51-7.47 23.11-5.03 21.7-2.6 19.36-1.16 17.01 0.28 14.13 0.28ZM13.65-3.13L13.65-3.13Q15.63-3.13 17.24-4.11 18.85-5.1 19.81-6.75 20.76-8.4 20.76-10.42L20.76-10.42Q20.76-12.43 19.81-14.08 18.85-15.73 17.24-16.72 15.63-17.71 13.65-17.71L13.65-17.71Q11.67-17.71 10.05-16.72 8.44-15.73 7.48-14.08 6.53-12.43 6.53-10.42L6.53-10.42Q6.53-8.4 7.48-6.75 8.44-5.1 10.05-4.11 11.67-3.13 13.65-3.13ZM39.23 0.42L39.23 0.42Q36.21 0.42 33.71-1.04 31.21-2.5 29.74-4.97 28.26-7.43 28.26-10.42L28.26-10.42Q28.26-13.44 29.74-15.89 31.21-18.33 33.71-19.79 36.21-21.25 39.23-21.25L39.23-21.25Q42.29-21.25 44.77-19.79 47.25-18.33 48.73-15.89 50.21-13.44 50.21-10.42L50.21-10.42Q50.21-7.43 48.73-4.97 47.25-2.5 44.77-1.04 42.29 0.42 39.23 0.42ZM39.23-3.13L39.23-3.13Q41.25-3.13 42.88-4.11 44.51-5.1 45.48-6.75 46.46-8.4 46.46-10.42L46.46-10.42Q46.46-12.43 45.48-14.08 44.51-15.73 42.88-16.72 41.25-17.71 39.23-17.71L39.23-17.71Q37.22-17.71 35.59-16.72 33.96-15.73 32.98-14.08 32.01-12.43 32.01-10.42L32.01-10.42Q32.01-8.4 32.98-6.75 33.96-5.1 35.59-4.11 37.22-3.13 39.23-3.13ZM59.16 0L55.41 0 55.41-20.83 58.88-20.83 58.88-17.85Q60.03-19.55 61.78-20.4 63.54-21.25 65.48-21.25L65.48-21.25Q67.6-21.25 69.37-20.26 71.14-19.27 72.22-17.5L72.22-17.5Q73.43-19.38 75.36-20.31 77.29-21.25 79.44-21.25L79.44-21.25Q81.8-21.25 83.76-20.14 85.72-19.03 86.89-17.03 88.05-15.03 88.05-12.33L88.05-12.33 88.05 0 84.3 0 84.3-11.88Q84.3-14.72 82.69-16.2 81.07-17.67 78.95-17.67L78.95-17.67Q77.63-17.67 76.4-17.08 75.17-16.49 74.39-15.24 73.61-13.99 73.61-11.98L73.61-11.98 73.61 0 69.86 0 69.86-11.88Q69.86-13.85 69.07-15.14 68.29-16.42 67.06-17.07 65.83-17.71 64.51-17.71L64.51-17.71Q63.22-17.71 61.99-17.12 60.76-16.53 59.96-15.28 59.16-14.03 59.16-11.98L59.16-11.98 59.16 0ZM105.1 0.28L105.1 0.28Q102.94 0.28 101.07-0.54 99.19-1.35 97.77-2.74L97.77-2.74 97.77 0 94.3 0 94.3-33.33 98.05-33.33 98.05-18.37Q99.44-19.65 101.24-20.38 103.05-21.11 105.1-21.11L105.1-21.11Q107.98-21.11 110.32-19.67 112.67-18.23 114.07-15.8 115.48-13.37 115.48-10.42L115.48-10.42Q115.48-7.47 114.07-5.03 112.67-2.6 110.32-1.16 107.98 0.28 105.1 0.28ZM104.61-3.13L104.61-3.13Q106.59-3.13 108.2-4.11 109.82-5.1 110.77-6.75 111.73-8.4 111.73-10.42L111.73-10.42Q111.73-12.43 110.77-14.08 109.82-15.73 108.2-16.72 106.59-17.71 104.61-17.71L104.61-17.71Q102.63-17.71 101.02-16.72 99.4-15.73 98.45-14.08 97.49-12.43 97.49-10.42L97.49-10.42Q97.49-8.4 98.45-6.75 99.4-5.1 101.02-4.11 102.63-3.13 104.61-3.13ZM129.61 0.28L129.61 0.28Q126.76 0.28 124.4-1.16 122.04-2.6 120.63-5.03 119.23-7.47 119.23-10.42L119.23-10.42Q119.23-13.37 120.63-15.8 122.04-18.23 124.4-19.67 126.76-21.11 129.61-21.11L129.61-21.11Q131.76-21.11 133.65-20.31 135.55-19.51 136.93-18.09L136.93-18.09 136.93-20.83 140.41-20.83 140.41 0 136.93 0 136.93-2.74Q135.55-1.35 133.65-0.54 131.76 0.28 129.61 0.28ZM130.09-3.13L130.09-3.13Q132.07-3.13 133.69-4.11 135.3-5.1 136.26-6.75 137.21-8.4 137.21-10.42L137.21-10.42Q137.21-12.43 136.26-14.08 135.3-15.73 133.69-16.72 132.07-17.71 130.09-17.71L130.09-17.71Q128.12-17.71 126.5-16.72 124.89-15.73 123.93-14.08 122.98-12.43 122.98-10.42L122.98-10.42Q122.98-8.4 123.93-6.75 124.89-5.1 126.5-4.11 128.12-3.13 130.09-3.13ZM150.27 10.42L146.2 10.42 152.97-3.06 144.15-20.83 148.39-20.83 152.83-11.81Q153.43-10.59 153.98-9.41 154.54-8.23 155.09-6.56L155.09-6.56Q155.68-8.23 156.22-9.43 156.76-10.63 157.38-11.81L157.38-11.81 161.9-20.83 165.89-20.83 150.27 10.42ZM179.22 0.42L179.22 0.42Q176.17 0.42 173.67-1.04 171.17-2.5 169.67-4.97 168.18-7.43 168.18-10.42L168.18-10.42Q168.18-13.4 169.67-15.87 171.17-18.33 173.67-19.79 176.17-21.25 179.22-21.25L179.22-21.25Q181.48-21.25 183.46-20.45 185.44-19.65 186.93-18.33L186.93-18.33 185.78-13.61Q184.92-15.35 183.16-16.53 181.41-17.71 179.19-17.71L179.19-17.71Q177.17-17.71 175.52-16.72 173.87-15.73 172.9-14.08 171.93-12.43 171.93-10.42L171.93-10.42Q171.93-8.44 172.9-6.77 173.87-5.1 175.52-4.11 177.17-3.13 179.19-3.13L179.19-3.13Q181.41-3.13 183.16-4.27 184.92-5.42 185.78-7.22L185.78-7.22 186.93-2.5Q185.44-1.18 183.46-0.38 181.48 0.42 179.22 0.42ZM201.02 0.42L201.02 0.42Q198 0.42 195.5-1.04 193-2.5 191.53-4.97 190.05-7.43 190.05-10.42L190.05-10.42Q190.05-13.44 191.53-15.89 193-18.33 195.5-19.79 198-21.25 201.02-21.25L201.02-21.25Q204.08-21.25 206.56-19.79 209.05-18.33 210.52-15.89 212-13.44 212-10.42L212-10.42Q212-7.43 210.52-4.97 209.05-2.5 206.56-1.04 204.08 0.42 201.02 0.42ZM201.02-3.13L201.02-3.13Q203.04-3.13 204.67-4.11 206.3-5.1 207.27-6.75 208.25-8.4 208.25-10.42L208.25-10.42Q208.25-12.43 207.27-14.08 206.3-15.73 204.67-16.72 203.04-17.71 201.02-17.71L201.02-17.71Q199.01-17.71 197.38-16.72 195.75-15.73 194.77-14.08 193.8-12.43 193.8-10.42L193.8-10.42Q193.8-8.4 194.77-6.75 195.75-5.1 197.38-4.11 199.01-3.13 201.02-3.13ZM226.13 0.28L226.13 0.28Q223.28 0.28 220.92-1.16 218.56-2.6 217.15-5.03 215.74-7.47 215.74-10.42L215.74-10.42Q215.74-13.37 217.15-15.8 218.56-18.23 220.92-19.67 223.28-21.11 226.13-21.11L226.13-21.11Q228.17-21.11 229.98-20.38 231.79-19.65 233.17-18.37L233.17-18.37 233.17-33.33 236.92-33.33 236.92 0 233.45 0 233.45-2.74Q232.06-1.35 230.17-0.54 228.28 0.28 226.13 0.28ZM226.61-3.13L226.61-3.13Q228.59-3.13 230.21-4.11 231.82-5.1 232.78-6.75 233.73-8.4 233.73-10.42L233.73-10.42Q233.73-12.43 232.78-14.08 231.82-15.73 230.21-16.72 228.59-17.71 226.61-17.71L226.61-17.71Q224.63-17.71 223.02-16.72 221.4-15.73 220.45-14.08 219.49-12.43 219.49-10.42L219.49-10.42Q219.49-8.4 220.45-6.75 221.4-5.1 223.02-4.11 224.63-3.13 226.61-3.13ZM247.34 0L243.59 0 243.59-20.83 247.34-20.83 247.34 0ZM245.46-24.58L245.46-24.58Q244.42-24.58 243.69-25.31 242.96-26.04 242.96-27.08L242.96-27.08Q242.96-28.16 243.69-28.87 244.42-29.58 245.46-29.58L245.46-29.58Q246.54-29.58 247.25-28.87 247.96-28.16 247.96-27.08L247.96-27.08Q247.96-26.04 247.25-25.31 246.54-24.58 245.46-24.58ZM257.75 0L254 0 254-20.83 257.48-20.83 257.48-17.47Q258.62-19.31 260.44-20.28 262.27-21.25 264.38-21.25L264.38-21.25Q266.61-21.25 268.5-20.16 270.39-19.06 271.57-17 272.75-14.93 272.75-11.98L272.75-11.98 272.75 0 269 0 269-11.46Q269-13.92 267.53-15.82 266.05-17.71 263.38-17.71L263.38-17.71Q261.19-17.71 259.47-16.13 257.75-14.55 257.75-11.56L257.75-11.56 257.75 0ZM287.44 10.83L287.44 10.83Q285.04 10.83 283.08 10.14 281.12 9.44 279.59 8.23L279.59 8.23 280.63 3.99Q281.67 5.49 283.41 6.42 285.15 7.36 287.4 7.36L287.4 7.36Q290.91 7.36 293.08 5.24 295.25 3.13 295.25-0.21L295.25-0.21 295.25-2.74Q293.86-1.35 291.97-0.54 290.08 0.28 287.92 0.28L287.92 0.28Q285.08 0.28 282.72-1.16 280.35-2.6 278.95-5.03 277.54-7.47 277.54-10.42L277.54-10.42Q277.54-13.37 278.95-15.8 280.35-18.23 282.72-19.67 285.08-21.11 287.92-21.11L287.92-21.11Q290.08-21.11 291.97-20.31 293.86-19.51 295.25-18.09L295.25-18.09 295.25-20.83 298.72-20.83 298.72 0Q298.72 3.4 297.14 5.83 295.56 8.26 292.99 9.55 290.42 10.83 287.44 10.83ZM288.41-3.13L288.41-3.13Q290.39-3.13 292-4.11 293.62-5.1 294.57-6.75 295.53-8.4 295.53-10.42L295.53-10.42Q295.53-12.43 294.57-14.08 293.62-15.73 292-16.72 290.39-17.71 288.41-17.71L288.41-17.71Q286.43-17.71 284.82-16.72 283.2-15.73 282.25-14.08 281.29-12.43 281.29-10.42L281.29-10.42Q281.29-8.4 282.25-6.75 283.2-5.1 284.82-4.11 286.43-3.13 288.41-3.13ZM314.97 0.42L314.97 0.42Q311.91 0.42 309.41-1.04 306.91-2.5 305.42-4.97 303.93-7.43 303.93-10.42L303.93-10.42Q303.93-13.4 305.42-15.87 306.91-18.33 309.41-19.79 311.91-21.25 314.97-21.25L314.97-21.25Q317.23-21.25 319.21-20.45 321.19-19.65 322.68-18.33L322.68-18.33 321.53-13.61Q320.66-15.35 318.91-16.53 317.16-17.71 314.94-17.71L314.94-17.71Q312.92-17.71 311.27-16.72 309.62-15.73 308.65-14.08 307.68-12.43 307.68-10.42L307.68-10.42Q307.68-8.44 308.65-6.77 309.62-5.1 311.27-4.11 312.92-3.13 314.94-3.13L314.94-3.13Q317.16-3.13 318.91-4.27 320.66-5.42 321.53-7.22L321.53-7.22 322.68-2.5Q321.19-1.18 319.21-0.38 317.23 0.42 314.97 0.42ZM336.77 0.42L336.77 0.42Q333.75 0.42 331.25-1.04 328.75-2.5 327.28-4.97 325.8-7.43 325.8-10.42L325.8-10.42Q325.8-13.44 327.28-15.89 328.75-18.33 331.25-19.79 333.75-21.25 336.77-21.25L336.77-21.25Q339.83-21.25 342.31-19.79 344.79-18.33 346.27-15.89 347.75-13.44 347.75-10.42L347.75-10.42Q347.75-7.43 346.27-4.97 344.79-2.5 342.31-1.04 339.83 0.42 336.77 0.42ZM336.77-3.13L336.77-3.13Q338.79-3.13 340.42-4.11 342.05-5.1 343.02-6.75 344-8.4 344-10.42L344-10.42Q344-12.43 343.02-14.08 342.05-15.73 340.42-16.72 338.79-17.71 336.77-17.71L336.77-17.71Q334.76-17.71 333.13-16.72 331.5-15.73 330.52-14.08 329.55-12.43 329.55-10.42L329.55-10.42Q329.55-8.4 330.52-6.75 331.5-5.1 333.13-4.11 334.76-3.13 336.77-3.13ZM356.7 10.42L352.95 10.42 352.95-20.83 356.42-20.83 356.42-18.09Q357.85-19.51 359.72-20.31 361.6-21.11 363.75-21.11L363.75-21.11Q366.63-21.11 368.98-19.67 371.32-18.23 372.73-15.8 374.13-13.37 374.13-10.42L374.13-10.42Q374.13-7.47 372.73-5.03 371.32-2.6 368.98-1.16 366.63 0.28 363.75 0.28L363.75 0.28Q361.7 0.28 359.9-0.45 358.09-1.18 356.7-2.47L356.7-2.47 356.7 10.42ZM363.26-3.13L363.26-3.13Q365.24-3.13 366.86-4.11 368.47-5.1 369.43-6.75 370.38-8.4 370.38-10.42L370.38-10.42Q370.38-12.43 369.43-14.08 368.47-15.73 366.86-16.72 365.24-17.71 363.26-17.71L363.26-17.71Q361.28-17.71 359.67-16.72 358.06-15.73 357.1-14.08 356.15-12.43 356.15-10.42L356.15-10.42Q356.15-8.4 357.1-6.75 358.06-5.1 359.67-4.11 361.28-3.13 363.26-3.13ZM383.09 0L379.34 0 379.34-20.83 382.81-20.83 382.81-17.85Q383.96-19.55 385.71-20.4 387.46-21.25 389.41-21.25L389.41-21.25Q391.53-21.25 393.3-20.26 395.07-19.27 396.14-17.5L396.14-17.5Q397.36-19.38 399.29-20.31 401.21-21.25 403.37-21.25L403.37-21.25Q405.73-21.25 407.69-20.14 409.65-19.03 410.81-17.03 411.98-15.03 411.98-12.33L411.98-12.33 411.98 0 408.23 0 408.23-11.88Q408.23-14.72 406.61-16.2 405-17.67 402.88-17.67L402.88-17.67Q401.56-17.67 400.33-17.08 399.09-16.49 398.31-15.24 397.53-13.99 397.53-11.98L397.53-11.98 397.53 0 393.78 0 393.78-11.88Q393.78-13.85 393-15.14 392.22-16.42 390.99-17.07 389.75-17.71 388.43-17.71L388.43-17.71Q387.15-17.71 385.92-17.12 384.68-16.53 383.89-15.28 383.09-14.03 383.09-11.98L383.09-11.98 383.09 0ZM427.15 0.28L427.15 0.28Q424.3 0.28 421.94-1.16 419.58-2.6 418.17-5.03 416.77-7.47 416.77-10.42L416.77-10.42Q416.77-13.37 418.17-15.8 419.58-18.23 421.94-19.67 424.3-21.11 427.15-21.11L427.15-21.11Q429.3-21.11 431.19-20.31 433.09-19.51 434.47-18.09L434.47-18.09 434.47-20.83 437.95-20.83 437.95 0 434.47 0 434.47-2.74Q433.09-1.35 431.19-0.54 429.3 0.28 427.15 0.28ZM427.63-3.13L427.63-3.13Q429.61-3.13 431.23-4.11 432.84-5.1 433.8-6.75 434.75-8.4 434.75-10.42L434.75-10.42Q434.75-12.43 433.8-14.08 432.84-15.73 431.23-16.72 429.61-17.71 427.63-17.71L427.63-17.71Q425.65-17.71 424.04-16.72 422.43-15.73 421.47-14.08 420.52-12.43 420.52-10.42L420.52-10.42Q420.52-8.4 421.47-6.75 422.43-5.1 424.04-4.11 425.65-3.13 427.63-3.13ZM447.8 10.42L443.74 10.42 450.51-3.06 441.69-20.83 445.93-20.83 450.37-11.81Q450.96-10.59 451.52-9.41 452.08-8.23 452.63-6.56L452.63-6.56Q453.22-8.23 453.76-9.43 454.3-10.63 454.92-11.81L454.92-11.81 459.44-20.83 463.43-20.83 447.8 10.42ZM468.53 0.42L468.53 0.42Q467.39 0.42 466.6-0.36 465.82-1.15 465.82-2.29L465.82-2.29Q465.82-3.44 466.6-4.22 467.39-5 468.53-5L468.53-5Q469.71-5 470.48-4.22 471.24-3.44 471.24-2.29L471.24-2.29Q471.24-1.15 470.48-0.36 469.71 0.42 468.53 0.42ZM486.13 0.42L486.13 0.42Q483.08 0.42 480.58-1.04 478.08-2.5 476.58-4.97 475.09-7.43 475.09-10.42L475.09-10.42Q475.09-13.4 476.58-15.87 478.08-18.33 480.58-19.79 483.08-21.25 486.13-21.25L486.13-21.25Q488.39-21.25 490.37-20.45 492.35-19.65 493.84-18.33L493.84-18.33 492.7-13.61Q491.83-15.35 490.07-16.53 488.32-17.71 486.1-17.71L486.1-17.71Q484.08-17.71 482.44-16.72 480.79-15.73 479.81-14.08 478.84-12.43 478.84-10.42L478.84-10.42Q478.84-8.44 479.81-6.77 480.79-5.1 482.44-4.11 484.08-3.13 486.1-3.13L486.1-3.13Q488.32-3.13 490.07-4.27 491.83-5.42 492.7-7.22L492.7-7.22 493.84-2.5Q492.35-1.18 490.37-0.38 488.39 0.42 486.13 0.42ZM507.94 0.42L507.94 0.42Q504.92 0.42 502.42-1.04 499.92-2.5 498.44-4.97 496.96-7.43 496.96-10.42L496.96-10.42Q496.96-13.44 498.44-15.89 499.92-18.33 502.42-19.79 504.92-21.25 507.94-21.25L507.94-21.25Q510.99-21.25 513.47-19.79 515.96-18.33 517.43-15.89 518.91-13.44 518.91-10.42L518.91-10.42Q518.91-7.43 517.43-4.97 515.96-2.5 513.47-1.04 510.99 0.42 507.94 0.42ZM507.94-3.13L507.94-3.13Q509.95-3.13 511.58-4.11 513.21-5.1 514.19-6.75 515.16-8.4 515.16-10.42L515.16-10.42Q515.16-12.43 514.19-14.08 513.21-15.73 511.58-16.72 509.95-17.71 507.94-17.71L507.94-17.71Q505.92-17.71 504.29-16.72 502.66-15.73 501.69-14.08 500.71-12.43 500.71-10.42L500.71-10.42Q500.71-8.4 501.69-6.75 502.66-5.1 504.29-4.11 505.92-3.13 507.94-3.13ZM527.86 0L524.11 0 524.11-20.83 527.59-20.83 527.59-17.85Q528.73-19.55 530.49-20.4 532.24-21.25 534.18-21.25L534.18-21.25Q536.3-21.25 538.07-20.26 539.84-19.27 540.92-17.5L540.92-17.5Q542.14-19.38 544.06-20.31 545.99-21.25 548.14-21.25L548.14-21.25Q550.5-21.25 552.46-20.14 554.43-19.03 555.59-17.03 556.75-15.03 556.75-12.33L556.75-12.33 556.75 0 553 0 553-11.88Q553-14.72 551.39-16.2 549.77-17.67 547.66-17.67L547.66-17.67Q546.34-17.67 545.1-17.08 543.87-16.49 543.09-15.24 542.31-13.99 542.31-11.98L542.31-11.98 542.31 0 538.56 0 538.56-11.88Q538.56-13.85 537.78-15.14 537-16.42 535.76-17.07 534.53-17.71 533.21-17.71L533.21-17.71Q531.93-17.71 530.69-17.12 529.46-16.53 528.66-15.28 527.86-14.03 527.86-11.98L527.86-11.98 527.86 0Z" opacity="1" transform="matrix(1,0,0,1,0,0)" fill="#1979cd" class="slogan-text-1" data-fill-palette-color="secondary" id="text-1"></path></svg></g></svg></g></svg></g></svg></g><g><svg viewBox="0 0 298.13904057599996 298.13904057599996" height="298.13904057599996" width="298.13904057599996"><g><svg></svg></g><g id="icon-0"><svg viewBox="0 0 298.13904057599996 298.13904057599996" height="298.13904057599996" width="298.13904057599996"><g><rect width="271.08568319039995" height="271.08568319039995" x="13.526678692800004" y="13.526678692800004" fill="#1979cd" data-fill-palette-color="accent"></rect><rect width="271.08568319039995" height="271.08568319039995" x="27.053357385600002" y="8.881784197001252e-15" fill="#1979cd" opacity="0.5" data-fill-palette-color="accent"></rect></g><g transform="matrix(1,0,0,1,85.00424735802223,38.647653408)"><svg viewBox="0 0 128.1305458599555 220.84373375999996" height="220.84373375999996" width="128.1305458599555"><g><svg xmlns="http://www.w3.org/2000/svg" xmlns:xlink="http://www.w3.org/1999/xlink" version="1.1" x="0" y="0" viewBox="21.679106830508616 1 56.85827385947762 98" enable-background="new 0 0 100 100" xml:space="preserve" height="220.84373375999996" width="128.1305458599555" class="icon-dxe-0" data-fill-palette-color="quaternary" id="dxe-0"><g fill="#a8deea" data-fill-palette-color="quaternary"><path fill-rule="evenodd" clip-rule="evenodd" d="M30.545 28.822C29.38 36.039 30.875 43.672 37.045 47.863 30.758 19.81 45.756 8.664 59.646 1 43.466 24.046 76.542 24.644 78.423 51.13 80.028 73.71 64.507 91.317 46.639 99 46.845 76.175 24.089 73.067 21.801 54.397 20.905 47.094 25.062 33.766 30.545 28.822" fill="#a8deea" data-fill-palette-color="quaternary"></path></g></svg></g></svg></g></svg></g></svg></g></svg></g><defs></defs></svg><rect width="395.52" height="161.33489103078793" fill="none" stroke="none" visibility="hidden"></rect></g></svg></g></svg>